<svg width="38" height="38" viewBox="0 0 38 38" fill="none" xmlns="http://www.w3.org/2000/svg">
<path d="M38 5.9375V13.6875L19.7554 21.1294C19.2712 21.3269 18.7288 21.3269 18.2446 21.1294L0 13.6875V5.9375C0 5.42364 0.200178 4.93083 0.556497 4.56748C0.912816 4.20413 1.39609 4 1.9 4H36.1C36.6039 4 37.0872 4.20413 37.4435 4.56748C37.7998 4.93083 38 5.42364 38 5.9375ZM0 17.8609V33.0625C0 33.5764 0.200178 34.0692 0.556497 34.4325C0.912816 34.7959 1.39609 35 1.9 35H36.1C36.6039 35 37.0872 34.7959 37.4435 34.4325C37.7998 34.0692 38 33.5764 38 33.0625V17.8609L19.7554 25.3028C19.2712 25.5003 18.7288 25.5003 18.2446 25.3028L0 17.8609Z" fill="#458741"/>
</svg>
