<svg width="38" height="38" viewBox="0 0 38 38" fill="none" xmlns="http://www.w3.org/2000/svg">
<path d="M34.4796 24.7665C32.6001 23.2164 30.8761 22.4628 29.2088 22.4628C26.797 22.4628 25.0604 24.0374 23.4882 25.6504C23.3074 25.8361 23.0885 25.9226 22.7994 25.9226C21.4745 25.9228 19.1438 24.22 15.872 20.8618C12.0229 16.9112 10.5676 14.3986 11.5461 13.3939C14.1989 10.6723 15.0271 7.94395 10.9655 2.75992C9.51146 0.902661 8.08887 0 6.61644 0C4.63071 0 3.1212 1.62902 1.78939 3.06641C1.55914 3.31487 1.34164 3.54959 1.12839 3.76845C-0.376879 5.31315 -0.376107 8.68247 1.13057 12.7818C2.78368 17.2797 6.04764 22.1726 10.3213 26.5593C13.6264 29.9509 17.2225 32.6919 20.721 34.5323C23.7755 36.1391 26.7382 37 29.0635 37C29.0638 37 29.0641 37 29.0645 37C30.5196 37 31.7017 36.6742 32.4823 36.0117C34.0681 34.6662 37.0196 32.1739 36.9999 29.2135C36.9891 27.6257 36.1413 26.1377 34.4796 24.7665Z" fill="#458741"/>
</svg>
