<svg width="38" height="38" viewBox="0 0 38 38" fill="none" xmlns="http://www.w3.org/2000/svg">
<path d="M37.2824 2.45365C36.6342 1.92895 35.6161 1.85388 34.5634 2.2573H34.5617C33.4546 2.68135 3.22267 15.0597 1.99196 15.5654C1.76812 15.6397 -0.186846 16.336 0.0145273 17.887C0.194294 19.2854 1.76552 19.8645 1.95739 19.9313L9.64328 22.4435C10.1532 24.0638 12.033 30.0417 12.4487 31.3188C12.708 32.115 13.1306 33.1611 13.8713 33.3764C14.5212 33.6156 15.1677 33.397 15.586 33.0835L20.285 28.923L27.8706 34.5702L28.0512 34.6733C28.5663 34.8911 29.0598 35 29.5308 35C29.8947 35 30.2439 34.9348 30.5775 34.8045C31.714 34.359 32.1686 33.3252 32.2161 33.2081L37.8822 5.09449C38.2279 3.59298 37.7474 2.82903 37.2824 2.45365ZM16.4217 23.4483L13.8289 30.0483L11.2361 21.7983L31.1142 7.77327L16.4217 23.4483Z" fill="#458741"/>
</svg>
