<svg width="38" height="38" viewBox="0 0 38 38" fill="none" xmlns="http://www.w3.org/2000/svg">
<g clip-path="url(#clip0_163_739)">
<path d="M19 0C8.52357 0 0 8.52357 0 19C0 29.4764 8.52357 38 19 38C29.4773 38 38 29.4764 38 19C38 8.52357 29.4773 0 19 0ZM27.2386 22.7463C29.0865 24.3869 29.4707 24.9726 29.5334 25.0726C30.2992 26.2869 28.6842 26.4348 28.6842 26.4348H25.2807C25.2807 26.4348 24.4522 26.4439 23.7442 25.9747C22.5902 25.2188 21.3816 23.7533 20.5324 24.0077C19.8195 24.2209 19.8261 25.1841 19.8261 26.0077C19.8261 26.3026 19.5725 26.4348 19 26.4348C18.4275 26.4348 18.1896 26.4348 17.936 26.4348C16.0715 26.4348 14.0484 25.807 12.0303 23.698C9.17535 20.7166 6.67148 14.711 6.67148 14.711C6.67148 14.711 6.52361 14.4086 6.6847 14.2244C6.86726 14.0179 7.36374 14.0443 7.36374 14.0443L10.664 14.0435C10.664 14.0435 10.9746 14.1021 11.1976 14.2591C11.3818 14.388 11.4843 14.6341 11.4843 14.6341C11.4843 14.6341 12.0386 16.4647 12.7449 17.632C14.1244 19.9103 14.7663 19.9682 15.2347 19.7228C15.9187 19.3676 15.6957 16.9455 15.6957 16.9455C15.6957 16.9455 15.7262 15.9055 15.3693 15.442C15.0943 15.0835 14.568 14.8927 14.3384 14.863C14.1525 14.839 14.4631 14.5135 14.8588 14.3277C15.3875 14.0922 16.107 14.0319 17.3478 14.0435C18.3135 14.0526 18.5919 14.1104 18.9686 14.1971C20.1078 14.4598 19.8261 15.1529 19.8261 17.5866C19.8261 18.3664 19.7187 19.4626 20.3069 19.8261C20.5605 19.983 21.4295 20.1747 22.976 17.6634C23.7103 16.4722 24.2944 14.4962 24.2944 14.4962C24.2944 14.4962 24.415 14.2789 24.6025 14.1715C24.7942 14.0617 24.7884 14.0641 25.0511 14.0641C25.3138 14.0641 27.9482 14.0435 28.5264 14.0435C29.1039 14.0435 29.6458 14.0369 29.7391 14.3756C29.873 14.8621 29.3129 16.5292 27.8937 18.3383C25.5616 21.3073 25.303 21.0297 27.2386 22.7463Z" fill="#458741"/>
</g>
<defs>
<clipPath id="clip0_163_739">
<rect width="38" height="38" fill="white"/>
</clipPath>
</defs>
</svg>
