<svg width="38" height="38" viewBox="0 0 38 38" fill="none" xmlns="http://www.w3.org/2000/svg">
<g clip-path="url(#clip0_163_743)">
<path d="M19.0001 0C8.52366 0 0.00012261 8.52357 0.00012261 19C0.00012261 22.2713 0.845207 25.4881 2.44781 28.3265L0.0306877 36.9509C-0.0486164 37.2342 0.0282095 37.5382 0.233078 37.7489C0.39086 37.9116 0.605642 38 0.826207 38C0.892294 38 0.959206 37.9917 1.02447 37.976L10.0255 35.7464C12.7739 37.2218 15.8692 38 19.0001 38C29.4765 38 38 29.4764 38 19C38 8.52357 29.4765 0 19.0001 0ZM28.5579 25.7045C28.1514 26.8297 26.2019 27.8565 25.2651 27.9944C24.4241 28.1175 23.3601 28.1704 22.1921 27.8036C21.4841 27.5806 20.5754 27.2848 19.4114 26.7883C14.5186 24.7017 11.3233 19.8368 11.0787 19.5155C10.835 19.1941 9.08705 16.9042 9.08705 14.5342C9.08705 12.1641 10.3468 10.9985 10.7946 10.5161C11.2423 10.0337 11.7702 9.91304 12.0956 9.91304C12.4211 9.91304 12.7458 9.91717 13.0308 9.93039C13.3306 9.94526 13.7329 9.81722 14.1286 10.7573C14.5351 11.7222 15.5107 14.0922 15.6313 14.3343C15.7536 14.5755 15.8345 14.8572 15.6726 15.1785C15.5107 15.4999 15.4297 15.7006 15.1852 15.9823C14.9407 16.264 14.673 16.6101 14.4533 16.8266C14.2088 17.067 13.9552 17.3272 14.2393 17.8096C14.5235 18.292 15.5024 19.869 16.953 21.1462C18.8158 22.7868 20.3879 23.2957 20.8753 23.5369C21.3627 23.7781 21.6477 23.7376 21.9318 23.4163C22.216 23.0941 23.1511 22.0094 23.4758 21.5278C23.8004 21.0462 24.1259 21.1255 24.5737 21.2866C25.0214 21.4469 27.4195 22.6117 27.9069 22.8529C28.3943 23.0941 28.7198 23.2147 28.842 23.4154C28.9643 23.6153 28.9643 24.5802 28.5579 25.7045Z" fill="#458741"/>
</g>
<defs>
<clipPath id="clip0_163_743">
<rect width="38" height="38" fill="white"/>
</clipPath>
</defs>
</svg>
