<svg width="129" height="46" viewBox="0 0 129 46" fill="none" xmlns="http://www.w3.org/2000/svg">
<path d="M21.3052 10.4357V8.51467H24.2234C24.7227 8.51467 25.1445 8.43679 25.4888 8.28104C25.8504 8.12528 26.1258 7.90895 26.3152 7.63205C26.5046 7.33785 26.5993 6.98307 26.5993 6.56772C26.5993 5.94469 26.3927 5.47743 25.9795 5.16591C25.5663 4.8544 24.9809 4.69865 24.2234 4.69865H22.4157V16.0688H24.6366C25.2047 16.0688 25.7126 15.9996 26.1603 15.8612C26.6079 15.7054 26.9608 15.4631 27.2191 15.1343C27.4945 14.7882 27.6323 14.3209 27.6323 13.7325C27.6323 13.3518 27.5548 13.0229 27.3998 12.746C27.2449 12.4691 27.0297 12.2442 26.7542 12.0711C26.4788 11.898 26.1603 11.7769 25.7987 11.7077C25.4544 11.6211 25.067 11.5779 24.6366 11.5779H21.3052V9.18962H25.1273C26.0053 9.18962 26.8575 9.2848 27.6839 9.47517C28.5103 9.66554 29.2592 9.97705 29.9306 10.4097C30.6021 10.8251 31.1358 11.3616 31.5318 12.0192C31.9449 12.6595 32.1515 13.4383 32.1515 14.3555C32.1515 15.567 31.8589 16.5448 31.2735 17.2889C30.7054 18.0331 29.8962 18.5869 28.846 18.9503C27.7958 19.2965 26.5562 19.4695 25.1273 19.4695H18.0513V1.29797H24.6883C25.945 1.29797 27.0469 1.47103 27.9938 1.81716C28.9579 2.14597 29.7154 2.65651 30.2664 3.34876C30.8345 4.0237 31.1186 4.88036 31.1186 5.91874C31.1186 6.87058 30.8345 7.68397 30.2664 8.35892C29.7154 9.03386 28.9579 9.55305 27.9938 9.91648C27.0469 10.2626 25.945 10.4357 24.6883 10.4357H21.3052Z" fill="#282828"/>
<path d="M37.7571 10.3837C37.7571 11.4567 37.9637 12.4086 38.3769 13.2393C38.8073 14.0527 39.4012 14.693 40.1588 15.1603C40.9335 15.6275 41.8374 15.8612 42.8703 15.8612C43.8861 15.8612 44.7727 15.6275 45.5303 15.1603C46.305 14.693 46.899 14.0527 47.3122 13.2393C47.7426 12.4086 47.9578 11.4567 47.9578 10.3837C47.9578 9.31076 47.7512 8.36757 47.338 7.55418C46.9248 6.72348 46.3394 6.07449 45.5819 5.60722C44.8244 5.13995 43.9205 4.90632 42.8703 4.90632C41.8374 4.90632 40.9335 5.13995 40.1588 5.60722C39.4012 6.07449 38.8073 6.72348 38.3769 7.55418C37.9637 8.36757 37.7571 9.31076 37.7571 10.3837ZM33.1345 10.3837C33.1345 8.98194 33.3755 7.70128 33.8576 6.54176C34.3568 5.38224 35.0455 4.37848 35.9235 3.53047C36.8016 2.68247 37.8346 2.03348 39.0225 1.58352C40.2104 1.11625 41.493 0.882618 42.8703 0.882618C44.2649 0.882618 45.5475 1.11625 46.7182 1.58352C47.9061 2.03348 48.9391 2.68247 49.8171 3.53047C50.6952 4.37848 51.3752 5.38224 51.8573 6.54176C52.3393 7.70128 52.5804 8.98194 52.5804 10.3837C52.5804 11.7856 52.3393 13.0749 51.8573 14.2517C51.3924 15.4285 50.721 16.4496 49.843 17.3149C48.9821 18.1802 47.9578 18.8552 46.7698 19.3397C45.5819 19.807 44.2821 20.0406 42.8703 20.0406C41.4414 20.0406 40.1329 19.807 38.945 19.3397C37.7571 18.8552 36.7241 18.1802 35.8461 17.3149C34.9852 16.4496 34.3138 15.4285 33.8318 14.2517C33.3669 13.0749 33.1345 11.7856 33.1345 10.3837Z" fill="#282828"/>
<path d="M62.9881 8.307L59.2177 18.6907H54.1819L62.9881 0.38939L71.7684 18.6907H66.7326L62.9881 8.307ZM68.9277 19.4695H57.0226V22.3251H52.6841V15.7054H73.2662V22.3251H68.9277V19.4695Z" fill="#282828"/>
<path d="M76.5159 11.8634V7.91761H90.2029V11.8634H76.5159ZM87.4397 1.29797H91.804V19.4695H87.4397V1.29797ZM75.3021 1.29797H79.6665V19.4695H75.3021V1.29797Z" fill="#282828"/>
<path d="M109.755 1.29797H114.197V19.4695H109.755V1.29797ZM94.5707 1.29797H98.935V19.4695H94.5707V1.29797ZM97.3081 11.2144V7.60609H100.846C102.378 7.60609 103.661 7.84838 104.694 8.33296C105.744 8.80023 106.536 9.47517 107.07 10.3578C107.603 11.2404 107.87 12.2961 107.87 13.5248C107.87 14.7536 107.603 15.8179 107.07 16.7178C106.536 17.6005 105.744 18.284 104.694 18.7686C103.661 19.2359 102.378 19.4695 100.846 19.4695H97.3081V15.8612H100.846C101.431 15.8612 101.931 15.7746 102.344 15.6016C102.774 15.4285 103.101 15.1689 103.325 14.8228C103.549 14.4594 103.661 14.0267 103.661 13.5248C103.661 13.0229 103.549 12.5989 103.325 12.2528C103.101 11.9067 102.774 11.6471 102.344 11.474C101.931 11.301 101.431 11.2144 100.846 11.2144H97.3081Z" fill="#282828"/>
<path d="M119.884 19.4695V15.8612H129V19.4695H119.884ZM119.884 4.90632V1.29797H129V4.90632H119.884ZM119.884 11.6817V8.15124H128.484V11.6817H119.884ZM116.992 1.29797H121.175V19.4695H116.992V1.29797Z" fill="#282828"/>
<path d="M16.2436 31.1772V27.2573H30.5504V31.1772H25.5663V45.4289H21.2019V31.1772H16.2436Z" fill="#282828"/>
<path d="M31.4942 27.2573H35.8586V45.4289H31.4942V27.2573ZM34.2316 30.8657V27.2573H37.7696C39.3018 27.2573 40.5845 27.4996 41.6174 27.9842C42.6676 28.4515 43.4596 29.1264 43.9933 30.009C44.527 30.8916 44.7939 31.956 44.7939 33.202C44.7939 34.4135 44.527 35.4692 43.9933 36.3691C43.4596 37.2517 42.6676 37.9353 41.6174 38.4199C40.5845 38.8871 39.3018 39.1208 37.7696 39.1208H34.2316V35.5124H37.7696C38.6476 35.5124 39.3363 35.3134 39.8356 34.9154C40.3348 34.5173 40.5845 33.9462 40.5845 33.202C40.5845 32.4406 40.3348 31.8608 39.8356 31.4628C39.3363 31.0647 38.6476 30.8657 37.7696 30.8657H34.2316Z" fill="#282828"/>
<path d="M50.1408 36.3431C50.1408 37.4161 50.3473 38.3679 50.7605 39.1986C51.1909 40.012 51.7849 40.6524 52.5424 41.1196C53.3172 41.5869 54.221 41.8205 55.254 41.8205C56.2698 41.8205 57.1564 41.5869 57.9139 41.1196C58.6887 40.6524 59.2826 40.012 59.6958 39.1986C60.1262 38.3679 60.3414 37.4161 60.3414 36.3431C60.3414 35.2701 60.1348 34.3269 59.7217 33.5135C59.3085 32.6828 58.7231 32.0339 57.9656 31.5666C57.2081 31.0993 56.3042 30.8657 55.254 30.8657C54.221 30.8657 53.3172 31.0993 52.5424 31.5666C51.7849 32.0339 51.1909 32.6828 50.7605 33.5135C50.3473 34.3269 50.1408 35.2701 50.1408 36.3431ZM45.5182 36.3431C45.5182 34.9413 45.7592 33.6606 46.2412 32.5011C46.7405 31.3416 47.4292 30.3378 48.3072 29.4898C49.1852 28.6418 50.2182 27.9929 51.4062 27.5429C52.5941 27.0756 53.8767 26.842 55.254 26.842C56.6485 26.842 57.9312 27.0756 59.1019 27.5429C60.2898 27.9929 61.3228 28.6418 62.2008 29.4898C63.0788 30.3378 63.7589 31.3416 64.2409 32.5011C64.723 33.6606 64.964 34.9413 64.964 36.3431C64.964 37.7449 64.723 39.0342 64.2409 40.2111C63.7761 41.3879 63.1047 42.409 62.2266 43.2743C61.3658 44.1396 60.3414 44.8145 59.1535 45.2991C57.9656 45.7664 56.6657 46 55.254 46C53.825 46 52.5166 45.7664 51.3287 45.2991C50.1408 44.8145 49.1078 44.1396 48.2297 43.2743C47.3689 42.409 46.6975 41.3879 46.2154 40.2111C45.7506 39.0342 45.5182 37.7449 45.5182 36.3431Z" fill="#282828"/>
<path d="M78.2195 31.1772H71.3243V45.4289H66.8825V27.2573H82.6613V45.4289H78.2195V31.1772Z" fill="#282828"/>
<path d="M100.803 27.2573H105.244V45.4289H100.803V27.2573ZM85.6178 27.2573H89.9822V45.4289H85.6178V27.2573ZM88.3552 37.1738V33.5655H91.8932C93.4254 33.5655 94.708 33.8078 95.741 34.2923C96.7912 34.7596 97.5832 35.4345 98.1169 36.3172C98.6506 37.1998 98.9174 38.2555 98.9174 39.4842C98.9174 40.7129 98.6506 41.7773 98.1169 42.6772C97.5832 43.5598 96.7912 44.2434 95.741 44.728C94.708 45.1953 93.4254 45.4289 91.8932 45.4289H88.3552V41.8205H91.8932C92.4785 41.8205 92.9778 41.734 93.391 41.5609C93.8214 41.3879 94.1485 41.1283 94.3723 40.7822C94.5961 40.4187 94.708 39.9861 94.708 39.4842C94.708 38.9823 94.5961 38.5583 94.3723 38.2122C94.1485 37.8661 93.8214 37.6065 93.391 37.4334C92.9778 37.2603 92.4785 37.1738 91.8932 37.1738H88.3552Z" fill="#282828"/>
<path d="M12.9123 45.4289H0V0H12.9123V45.4289Z" fill="#458741"/>
</svg>
