<svg width="157" height="56" viewBox="0 0 157 56" fill="none" xmlns="http://www.w3.org/2000/svg">
<path d="M25.9296 12.7043V10.3657H29.4812C30.0889 10.3657 30.6022 10.2709 31.0213 10.0813C31.4613 9.89165 31.7965 9.62829 32.027 9.2912C32.2575 8.93303 32.3728 8.50113 32.3728 7.99548C32.3728 7.23702 32.1213 6.66817 31.6184 6.28894C31.1156 5.90971 30.4032 5.72009 29.4812 5.72009H27.2811V19.5621H29.9841C30.6755 19.5621 31.2937 19.4778 31.8384 19.3093C32.3832 19.1196 32.8128 18.8247 33.1271 18.4244C33.4623 18.003 33.63 17.4342 33.63 16.7178C33.63 16.2543 33.5357 15.854 33.3471 15.5169C33.1585 15.1798 32.8966 14.9059 32.5613 14.6953C32.2261 14.4846 31.8384 14.3371 31.3984 14.2528C30.9794 14.1475 30.5079 14.0948 29.9841 14.0948H25.9296V11.1874H30.5813C31.6499 11.1874 32.6871 11.3032 33.6928 11.535C34.6986 11.7667 35.61 12.146 36.4272 12.6727C37.2444 13.1783 37.8939 13.8315 38.3759 14.6321C38.8787 15.4116 39.1302 16.3597 39.1302 17.4763C39.1302 18.9511 38.774 20.1415 38.0616 21.0474C37.3701 21.9534 36.3853 22.6275 35.1072 23.07C33.829 23.4913 32.3204 23.702 30.5813 23.702H21.9695V1.58013H30.0469C31.5765 1.58013 32.9175 1.79082 34.07 2.21219C35.2433 2.61249 36.1653 3.23401 36.8358 4.07675C37.5273 4.89842 37.873 5.94131 37.873 7.20542C37.873 8.36418 37.5273 9.3544 36.8358 10.1761C36.1653 10.9977 35.2433 11.6298 34.07 12.0722C32.9175 12.4936 31.5765 12.7043 30.0469 12.7043H25.9296Z" fill="white"/>
<path d="M45.9524 12.6411C45.9524 13.9473 46.2039 15.1061 46.7067 16.1174C47.2306 17.1076 47.9535 17.8871 48.8754 18.456C49.8183 19.0248 50.9183 19.3093 52.1755 19.3093C53.4118 19.3093 54.4909 19.0248 55.4128 18.456C56.3557 17.8871 57.0786 17.1076 57.5815 16.1174C58.1053 15.1061 58.3672 13.9473 58.3672 12.6411C58.3672 11.3348 58.1158 10.1866 57.6129 9.19639C57.11 8.1851 56.3976 7.39503 55.4757 6.82618C54.5537 6.25733 53.4537 5.97291 52.1755 5.97291C50.9183 5.97291 49.8183 6.25733 48.8754 6.82618C47.9535 7.39503 47.2306 8.1851 46.7067 9.19639C46.2039 10.1866 45.9524 11.3348 45.9524 12.6411ZM40.3265 12.6411C40.3265 10.9345 40.6198 9.37547 41.2065 7.96388C41.8142 6.55229 42.6523 5.33032 43.7209 4.29797C44.7895 3.26561 46.0467 2.47554 47.4925 1.92776C48.9383 1.35892 50.4993 1.07449 52.1755 1.07449C53.8727 1.07449 55.4338 1.35892 56.8586 1.92776C58.3044 2.47554 59.5615 3.26561 60.6302 4.29797C61.6988 5.33032 62.5264 6.55229 63.1131 7.96388C63.6998 9.37547 63.9932 10.9345 63.9932 12.6411C63.9932 14.3476 63.6998 15.9172 63.1131 17.3499C62.5474 18.7825 61.7302 20.0256 60.6616 21.079C59.6139 22.1324 58.3672 22.9541 56.9214 23.544C55.4757 24.1129 53.8937 24.3973 52.1755 24.3973C50.4364 24.3973 48.844 24.1129 47.3982 23.544C45.9524 22.9541 44.6952 22.1324 43.6266 21.079C42.5789 20.0256 41.7618 18.7825 41.1751 17.3499C40.6093 15.9172 40.3265 14.3476 40.3265 12.6411Z" fill="white"/>
<path d="M76.6599 10.1129L72.0711 22.754H65.9423L76.6599 0.47404L87.346 22.754H81.2172L76.6599 10.1129ZM83.8887 23.702H69.3996V27.1783H64.1194V19.1196H89.169V27.1783H83.8887V23.702Z" fill="white"/>
<path d="M93.124 14.4424V9.63883H109.782V14.4424H93.124ZM106.419 1.58013H111.73V23.702H106.419V1.58013ZM91.6468 1.58013H96.9584V23.702H91.6468V1.58013Z" fill="white"/>
<path d="M133.578 1.58013H138.984V23.702H133.578V1.58013ZM115.098 1.58013H120.409V23.702H115.098V1.58013ZM118.429 13.6524V9.25959H122.735C124.6 9.25959 126.161 9.55455 127.418 10.1445C128.696 10.7133 129.66 11.535 130.31 12.6095C130.959 13.684 131.284 14.9691 131.284 16.465C131.284 17.9609 130.959 19.2566 130.31 20.3521C129.66 21.4266 128.696 22.2588 127.418 22.8488C126.161 23.4176 124.6 23.702 122.735 23.702H118.429V19.3093H122.735C123.447 19.3093 124.055 19.2039 124.558 18.9932C125.082 18.7825 125.48 18.4665 125.752 18.0451C126.025 17.6027 126.161 17.076 126.161 16.465C126.161 15.854 126.025 15.3378 125.752 14.9165C125.48 14.4951 125.082 14.1791 124.558 13.9684C124.055 13.7577 123.447 13.6524 122.735 13.6524H118.429Z" fill="white"/>
<path d="M145.905 23.702V19.3093H157V23.702H145.905ZM145.905 5.97291V1.58013H157V5.97291H145.905ZM145.905 14.2212V9.92325H156.371V14.2212H145.905ZM142.385 1.58013H147.477V23.702H142.385V1.58013Z" fill="white"/>
<path d="M19.7694 37.9549V33.1828H37.1815V37.9549H31.1156V55.3047H25.8039V37.9549H19.7694Z" fill="white"/>
<path d="M38.3302 33.1828H43.6418V55.3047H38.3302V33.1828ZM41.6618 37.5756V33.1828H45.9676C47.8325 33.1828 49.3935 33.4778 50.6507 34.0677C51.9288 34.6366 52.8927 35.4582 53.5422 36.5327C54.1918 37.6072 54.5166 38.9029 54.5166 40.4199C54.5166 41.8947 54.1918 43.1798 53.5422 44.2754C52.8927 45.3499 51.9288 46.1821 50.6507 46.772C49.3935 47.3409 47.8325 47.6253 45.9676 47.6253H41.6618V43.2325H45.9676C47.0363 43.2325 47.8744 42.9902 48.482 42.5056C49.0897 42.0211 49.3935 41.3258 49.3935 40.4199C49.3935 39.4929 49.0897 38.7871 48.482 38.3025C47.8744 37.8179 47.0363 37.5756 45.9676 37.5756H41.6618Z" fill="white"/>
<path d="M61.024 44.2438C61.024 45.55 61.2755 46.7088 61.7783 47.7201C62.3022 48.7103 63.0251 49.4898 63.947 50.0587C64.8899 50.6275 65.9899 50.912 67.2471 50.912C68.4834 50.912 69.5625 50.6275 70.4844 50.0587C71.4273 49.4898 72.1502 48.7103 72.6531 47.7201C73.1769 46.7088 73.4388 45.55 73.4388 44.2438C73.4388 42.9375 73.1874 41.7893 72.6845 40.7991C72.1816 39.7878 71.4692 38.9977 70.5473 38.4289C69.6253 37.86 68.5253 37.5756 67.2471 37.5756C65.9899 37.5756 64.8899 37.86 63.947 38.4289C63.0251 38.9977 62.3022 39.7878 61.7783 40.7991C61.2755 41.7893 61.024 42.9375 61.024 44.2438ZM55.3981 44.2438C55.3981 42.5372 55.6914 40.9782 56.2781 39.5666C56.8858 38.155 57.7239 36.933 58.7925 35.9007C59.8611 34.8683 61.1183 34.0783 62.5641 33.5305C64.0098 32.9616 65.5709 32.6772 67.2471 32.6772C68.9443 32.6772 70.5054 32.9616 71.9302 33.5305C73.376 34.0783 74.6331 34.8683 75.7018 35.9007C76.7704 36.933 77.598 38.155 78.1847 39.5666C78.7714 40.9782 79.0648 42.5372 79.0648 44.2438C79.0648 45.9503 78.7714 47.5199 78.1847 48.9526C77.619 50.3853 76.8018 51.6283 75.7332 52.6817C74.6855 53.7351 73.4388 54.5568 71.993 55.1467C70.5473 55.7156 68.9653 56 67.2471 56C65.508 56 63.9156 55.7156 62.4698 55.1467C61.024 54.5568 59.7668 53.7351 58.6982 52.6817C57.6505 51.6283 56.8334 50.3853 56.2467 48.9526C55.6809 47.5199 55.3981 45.9503 55.3981 44.2438Z" fill="white"/>
<path d="M95.1974 37.9549H86.8056V55.3047H81.3997V33.1828H100.603V55.3047H95.1974V37.9549Z" fill="white"/>
<path d="M122.682 33.1828H128.088V55.3047H122.682V33.1828ZM104.202 33.1828H109.513V55.3047H104.202V33.1828ZM107.533 45.2551V40.8623H111.839C113.704 40.8623 115.265 41.1573 116.522 41.7472C117.8 42.316 118.764 43.1377 119.414 44.2122C120.063 45.2867 120.388 46.5719 120.388 48.0677C120.388 49.5636 120.063 50.8593 119.414 51.9549C118.764 53.0294 117.8 53.8616 116.522 54.4515C115.265 55.0203 113.704 55.3047 111.839 55.3047H107.533V50.912H111.839C112.551 50.912 113.159 50.8066 113.662 50.5959C114.186 50.3853 114.584 50.0692 114.856 49.6479C115.129 49.2054 115.265 48.6787 115.265 48.0677C115.265 47.4567 115.129 46.9406 114.856 46.5192C114.584 46.0978 114.186 45.7818 113.662 45.5711C113.159 45.3604 112.551 45.2551 111.839 45.2551H107.533Z" fill="white"/>
<path d="M15.7149 55.3047H0V0H15.7149V27.6524V55.3047Z" fill="white"/>
</svg>
